%TF.GenerationSoftware,KiCad,Pcbnew,9.0.0*%
%TF.CreationDate,2025-08-27T13:46:33+01:00*%
%TF.ProjectId,keyboard-pcb,6b657962-6f61-4726-942d-7063622e6b69,1.0*%
%TF.SameCoordinates,Original*%
%TF.FileFunction,Paste,Top*%
%TF.FilePolarity,Positive*%
%FSLAX46Y46*%
G04 Gerber Fmt 4.6, Leading zero omitted, Abs format (unit mm)*
G04 Created by KiCad (PCBNEW 9.0.0) date 2025-08-27 13:46:33*
%MOMM*%
%LPD*%
G01*
G04 APERTURE LIST*
G04 Aperture macros list*
%AMRoundRect*
0 Rectangle with rounded corners*
0 $1 Rounding radius*
0 $2 $3 $4 $5 $6 $7 $8 $9 X,Y pos of 4 corners*
0 Add a 4 corners polygon primitive as box body*
4,1,4,$2,$3,$4,$5,$6,$7,$8,$9,$2,$3,0*
0 Add four circle primitives for the rounded corners*
1,1,$1+$1,$2,$3*
1,1,$1+$1,$4,$5*
1,1,$1+$1,$6,$7*
1,1,$1+$1,$8,$9*
0 Add four rect primitives between the rounded corners*
20,1,$1+$1,$2,$3,$4,$5,0*
20,1,$1+$1,$4,$5,$6,$7,0*
20,1,$1+$1,$6,$7,$8,$9,0*
20,1,$1+$1,$8,$9,$2,$3,0*%
G04 Aperture macros list end*
%ADD10RoundRect,0.200000X0.550000X0.200000X-0.550000X0.200000X-0.550000X-0.200000X0.550000X-0.200000X0*%
%ADD11RoundRect,0.135000X0.135000X0.185000X-0.135000X0.185000X-0.135000X-0.185000X0.135000X-0.185000X0*%
%ADD12RoundRect,0.200000X-0.200000X0.550000X-0.200000X-0.550000X0.200000X-0.550000X0.200000X0.550000X0*%
G04 APERTURE END LIST*
D10*
%TO.C,D80*%
X223171400Y-109221000D03*
X223171400Y-107441000D03*
X219891400Y-107441000D03*
X219891400Y-109221000D03*
%TD*%
%TO.C,D82*%
X261271400Y-109221000D03*
X261271400Y-107441000D03*
X257991400Y-107441000D03*
X257991400Y-109221000D03*
%TD*%
%TO.C,D92*%
X218408900Y-90171000D03*
X218408900Y-88391000D03*
X215128900Y-88391000D03*
X215128900Y-90171000D03*
%TD*%
%TO.C,D107*%
X208883900Y-71121000D03*
X208883900Y-69341000D03*
X205603900Y-69341000D03*
X205603900Y-71121000D03*
%TD*%
%TO.C,D128*%
X125540150Y-147313400D03*
X125540150Y-145533400D03*
X122260150Y-145533400D03*
X122260150Y-147313400D03*
%TD*%
%TO.C,D81*%
X242221400Y-109221000D03*
X242221400Y-107441000D03*
X238941400Y-107441000D03*
X238941400Y-109221000D03*
%TD*%
%TO.C,D134*%
X325565150Y-128422600D03*
X325565150Y-126642600D03*
X322285150Y-126642600D03*
X322285150Y-128422600D03*
%TD*%
%TO.C,D69*%
X156496400Y-128422600D03*
X156496400Y-126642600D03*
X153216400Y-126642600D03*
X153216400Y-128422600D03*
%TD*%
%TO.C,D91*%
X237458900Y-90171000D03*
X237458900Y-88391000D03*
X234178900Y-88391000D03*
X234178900Y-90171000D03*
%TD*%
%TO.C,D65*%
X232696400Y-128422600D03*
X232696400Y-126642600D03*
X229416400Y-126642600D03*
X229416400Y-128422600D03*
%TD*%
%TO.C,D106*%
X189833900Y-71121000D03*
X189833900Y-69341000D03*
X186553900Y-69341000D03*
X186553900Y-71121000D03*
%TD*%
%TO.C,D104*%
X151733900Y-71121000D03*
X151733900Y-69341000D03*
X148453900Y-69341000D03*
X148453900Y-71121000D03*
%TD*%
%TO.C,D127*%
X101727650Y-147313400D03*
X101727650Y-145533400D03*
X98447650Y-145533400D03*
X98447650Y-147313400D03*
%TD*%
%TO.C,D83*%
X280321400Y-109221000D03*
X280321400Y-107441000D03*
X277041400Y-107441000D03*
X277041400Y-109221000D03*
%TD*%
%TO.C,D79*%
X205821100Y-109221000D03*
X205821100Y-107441000D03*
X202541100Y-107441000D03*
X202541100Y-109221000D03*
%TD*%
%TO.C,D72*%
X87440150Y-128422600D03*
X87440150Y-126642600D03*
X84160150Y-126642600D03*
X84160150Y-128422600D03*
%TD*%
%TO.C,D98*%
X104108900Y-90171000D03*
X104108900Y-88391000D03*
X100828900Y-88391000D03*
X100828900Y-90171000D03*
%TD*%
%TO.C,D90*%
X256508900Y-90171000D03*
X256508900Y-88391000D03*
X253228900Y-88391000D03*
X253228900Y-90171000D03*
%TD*%
%TO.C,D64*%
X253211100Y-128422600D03*
X253211100Y-126642600D03*
X249931100Y-126642600D03*
X249931100Y-128422600D03*
%TD*%
%TO.C,D105*%
X170783900Y-71121000D03*
X170783900Y-69341000D03*
X167503900Y-69341000D03*
X167503900Y-71121000D03*
%TD*%
%TO.C,D75*%
X127921400Y-109221000D03*
X127921400Y-107441000D03*
X124641400Y-107441000D03*
X124641400Y-109221000D03*
%TD*%
D11*
%TO.C,R7*%
X75631100Y-142825400D03*
X74611100Y-142825400D03*
%TD*%
D10*
%TO.C,D102*%
X113633900Y-71121000D03*
X113633900Y-69341000D03*
X110353900Y-69341000D03*
X110353900Y-71121000D03*
%TD*%
%TO.C,D70*%
X137446400Y-128422600D03*
X137446400Y-126642600D03*
X134166400Y-126642600D03*
X134166400Y-128422600D03*
%TD*%
%TO.C,D93*%
X199358900Y-90171000D03*
X199358900Y-88391000D03*
X196078900Y-88391000D03*
X196078900Y-90171000D03*
%TD*%
%TO.C,D133*%
X339852650Y-147313400D03*
X339852650Y-145533400D03*
X336572650Y-145533400D03*
X336572650Y-147313400D03*
%TD*%
%TO.C,D67*%
X194596400Y-128422600D03*
X194596400Y-126642600D03*
X191316400Y-126642600D03*
X191316400Y-128422600D03*
%TD*%
%TO.C,D99*%
X80296400Y-90171000D03*
X80296400Y-88391000D03*
X77016400Y-88391000D03*
X77016400Y-90171000D03*
%TD*%
%TO.C,D111*%
X285083900Y-71121000D03*
X285083900Y-69341000D03*
X281803900Y-69341000D03*
X281803900Y-71121000D03*
%TD*%
%TO.C,D71*%
X118396400Y-128422600D03*
X118396400Y-126642600D03*
X115116400Y-126642600D03*
X115116400Y-128422600D03*
%TD*%
%TO.C,D88*%
X294608900Y-90171000D03*
X294608900Y-88391000D03*
X291328900Y-88391000D03*
X291328900Y-90171000D03*
%TD*%
%TO.C,D94*%
X180308900Y-90171000D03*
X180308900Y-88391000D03*
X177028900Y-88391000D03*
X177028900Y-90171000D03*
%TD*%
%TO.C,D1*%
X270796400Y-128422600D03*
X270796400Y-126642600D03*
X267516400Y-126642600D03*
X267516400Y-128422600D03*
%TD*%
%TO.C,D66*%
X213646400Y-128422600D03*
X213646400Y-126642600D03*
X210366400Y-126642600D03*
X210366400Y-128422600D03*
%TD*%
%TO.C,D73*%
X82677650Y-109221000D03*
X82677650Y-107441000D03*
X79397650Y-107441000D03*
X79397650Y-109221000D03*
%TD*%
%TO.C,D109*%
X246983900Y-71121000D03*
X246983900Y-69341000D03*
X243703900Y-69341000D03*
X243703900Y-71121000D03*
%TD*%
%TO.C,D74*%
X108871400Y-109221000D03*
X108871400Y-107441000D03*
X105591400Y-107441000D03*
X105591400Y-109221000D03*
%TD*%
%TO.C,D130*%
X268415150Y-147313400D03*
X268415150Y-145533400D03*
X265135150Y-145533400D03*
X265135150Y-147313400D03*
%TD*%
%TO.C,D87*%
X313401100Y-90115400D03*
X313401100Y-88335400D03*
X310121100Y-88335400D03*
X310121100Y-90115400D03*
%TD*%
%TO.C,D95*%
X161258900Y-90171000D03*
X161258900Y-88391000D03*
X157978900Y-88391000D03*
X157978900Y-90171000D03*
%TD*%
%TO.C,D77*%
X166021400Y-109221000D03*
X166021400Y-107441000D03*
X162741400Y-107441000D03*
X162741400Y-109221000D03*
%TD*%
%TO.C,D78*%
X185071400Y-109221000D03*
X185071400Y-107441000D03*
X181791400Y-107441000D03*
X181791400Y-109221000D03*
%TD*%
%TO.C,D76*%
X146971400Y-109221000D03*
X146971400Y-107441000D03*
X143691400Y-107441000D03*
X143691400Y-109221000D03*
%TD*%
%TO.C,D131*%
X292227650Y-147313400D03*
X292227650Y-145533400D03*
X288947650Y-145533400D03*
X288947650Y-147313400D03*
%TD*%
%TO.C,D126*%
X77915150Y-147313400D03*
X77915150Y-145533400D03*
X74635150Y-145533400D03*
X74635150Y-147313400D03*
%TD*%
%TO.C,D96*%
X142208900Y-90171000D03*
X142208900Y-88391000D03*
X138928900Y-88391000D03*
X138928900Y-90171000D03*
%TD*%
%TO.C,D97*%
X123158900Y-90171000D03*
X123158900Y-88391000D03*
X119878900Y-88391000D03*
X119878900Y-90171000D03*
%TD*%
%TO.C,D108*%
X227933900Y-71121000D03*
X227933900Y-69341000D03*
X224653900Y-69341000D03*
X224653900Y-71121000D03*
%TD*%
%TO.C,D86*%
X337471400Y-90171000D03*
X337471400Y-88391000D03*
X334191400Y-88391000D03*
X334191400Y-90171000D03*
%TD*%
%TO.C,D103*%
X132683900Y-71121000D03*
X132683900Y-69341000D03*
X129403900Y-69341000D03*
X129403900Y-71121000D03*
%TD*%
%TO.C,D135*%
X289846400Y-128422600D03*
X289846400Y-126642600D03*
X286566400Y-126642600D03*
X286566400Y-128422600D03*
%TD*%
%TO.C,D132*%
X316040150Y-147313400D03*
X316040150Y-145533400D03*
X312760150Y-145533400D03*
X312760150Y-147313400D03*
%TD*%
%TO.C,D85*%
X330327650Y-109221000D03*
X330327650Y-107441000D03*
X327047650Y-107441000D03*
X327047650Y-109221000D03*
%TD*%
%TO.C,D110*%
X266033900Y-71121000D03*
X266033900Y-69341000D03*
X262753900Y-69341000D03*
X262753900Y-71121000D03*
%TD*%
%TO.C,D112*%
X304133900Y-71121000D03*
X304133900Y-69341000D03*
X300853900Y-69341000D03*
X300853900Y-71121000D03*
%TD*%
%TO.C,D89*%
X275558900Y-90171000D03*
X275558900Y-88391000D03*
X272278900Y-88391000D03*
X272278900Y-90171000D03*
%TD*%
%TO.C,D113*%
X332708900Y-71121000D03*
X332708900Y-69341000D03*
X329428900Y-69341000D03*
X329428900Y-71121000D03*
%TD*%
%TO.C,D100*%
X75533900Y-71121000D03*
X75533900Y-69341000D03*
X72253900Y-69341000D03*
X72253900Y-71121000D03*
%TD*%
%TO.C,D129*%
X196977650Y-147313400D03*
X196977650Y-145533400D03*
X193697650Y-145533400D03*
X193697650Y-147313400D03*
%TD*%
%TO.C,D84*%
X299371400Y-109221000D03*
X299371400Y-107441000D03*
X296091400Y-107441000D03*
X296091400Y-109221000D03*
%TD*%
D12*
%TO.C,D101*%
X103341100Y-59192200D03*
X101561100Y-59192200D03*
X101561100Y-62472200D03*
X103341100Y-62472200D03*
%TD*%
D10*
%TO.C,D68*%
X175546400Y-128422600D03*
X175546400Y-126642600D03*
X172266400Y-126642600D03*
X172266400Y-128422600D03*
%TD*%
M02*
