%TF.GenerationSoftware,KiCad,Pcbnew,9.0.0*%
%TF.CreationDate,2025-08-27T13:46:33+01:00*%
%TF.ProjectId,keyboard-pcb,6b657962-6f61-4726-942d-7063622e6b69,1.0*%
%TF.SameCoordinates,Original*%
%TF.FileFunction,Paste,Bot*%
%TF.FilePolarity,Positive*%
%FSLAX46Y46*%
G04 Gerber Fmt 4.6, Leading zero omitted, Abs format (unit mm)*
G04 Created by KiCad (PCBNEW 9.0.0) date 2025-08-27 13:46:33*
%MOMM*%
%LPD*%
G01*
G04 APERTURE LIST*
G04 Aperture macros list*
%AMRoundRect*
0 Rectangle with rounded corners*
0 $1 Rounding radius*
0 $2 $3 $4 $5 $6 $7 $8 $9 X,Y pos of 4 corners*
0 Add a 4 corners polygon primitive as box body*
4,1,4,$2,$3,$4,$5,$6,$7,$8,$9,$2,$3,0*
0 Add four circle primitives for the rounded corners*
1,1,$1+$1,$2,$3*
1,1,$1+$1,$4,$5*
1,1,$1+$1,$6,$7*
1,1,$1+$1,$8,$9*
0 Add four rect primitives between the rounded corners*
20,1,$1+$1,$2,$3,$4,$5,0*
20,1,$1+$1,$4,$5,$6,$7,0*
20,1,$1+$1,$6,$7,$8,$9,0*
20,1,$1+$1,$8,$9,$2,$3,0*%
G04 Aperture macros list end*
%ADD10RoundRect,0.200000X1.075000X1.050000X-1.075000X1.050000X-1.075000X-1.050000X1.075000X-1.050000X0*%
%ADD11RoundRect,0.225000X0.375000X-0.225000X0.375000X0.225000X-0.375000X0.225000X-0.375000X-0.225000X0*%
%ADD12RoundRect,0.225000X0.225000X0.375000X-0.225000X0.375000X-0.225000X-0.375000X0.225000X-0.375000X0*%
%ADD13RoundRect,0.067500X0.067500X0.067500X-0.067500X0.067500X-0.067500X-0.067500X0.067500X-0.067500X0*%
%ADD14RoundRect,0.067500X0.067500X-0.067500X0.067500X0.067500X-0.067500X0.067500X-0.067500X-0.067500X0*%
%ADD15RoundRect,0.150000X0.512500X0.150000X-0.512500X0.150000X-0.512500X-0.150000X0.512500X-0.150000X0*%
%ADD16RoundRect,0.067500X-0.067500X-0.067500X0.067500X-0.067500X0.067500X0.067500X-0.067500X0.067500X0*%
%ADD17RoundRect,0.162500X0.650000X0.162500X-0.650000X0.162500X-0.650000X-0.162500X0.650000X-0.162500X0*%
%ADD18RoundRect,0.135000X-0.135000X-0.185000X0.135000X-0.185000X0.135000X0.185000X-0.135000X0.185000X0*%
%ADD19RoundRect,0.225000X-0.225000X-0.375000X0.225000X-0.375000X0.225000X0.375000X-0.225000X0.375000X0*%
%ADD20RoundRect,0.150000X-0.150000X-0.500000X0.150000X-0.500000X0.150000X0.500000X-0.150000X0.500000X0*%
%ADD21RoundRect,0.075000X-0.075000X-0.575000X0.075000X-0.575000X0.075000X0.575000X-0.075000X0.575000X0*%
%ADD22RoundRect,0.249999X0.395001X0.395001X-0.395001X0.395001X-0.395001X-0.395001X0.395001X-0.395001X0*%
%ADD23RoundRect,0.050000X0.387500X0.050000X-0.387500X0.050000X-0.387500X-0.050000X0.387500X-0.050000X0*%
%ADD24RoundRect,0.050000X0.050000X0.387500X-0.050000X0.387500X-0.050000X-0.387500X0.050000X-0.387500X0*%
%ADD25RoundRect,0.067500X-0.067500X0.067500X-0.067500X-0.067500X0.067500X-0.067500X0.067500X0.067500X0*%
%ADD26RoundRect,0.147500X-0.147500X-0.172500X0.147500X-0.172500X0.147500X0.172500X-0.147500X0.172500X0*%
%ADD27RoundRect,0.200000X-1.050000X1.075000X-1.050000X-1.075000X1.050000X-1.075000X1.050000X1.075000X0*%
%ADD28R,1.150000X1.000000*%
%ADD29RoundRect,0.135000X0.185000X-0.135000X0.185000X0.135000X-0.185000X0.135000X-0.185000X-0.135000X0*%
%ADD30R,1.500000X1.500000*%
%ADD31RoundRect,0.150000X-0.512500X-0.150000X0.512500X-0.150000X0.512500X0.150000X-0.512500X0.150000X0*%
%ADD32RoundRect,0.135000X-0.185000X0.135000X-0.185000X-0.135000X0.185000X-0.135000X0.185000X0.135000X0*%
G04 APERTURE END LIST*
D10*
%TO.C,MX47*%
X185871400Y-115471200D03*
X198798400Y-112931200D03*
%TD*%
D11*
%TO.C,D49*%
X201097100Y-119987800D03*
X201097100Y-116687800D03*
%TD*%
D10*
%TO.C,MX31*%
X119196400Y-96421200D03*
X132123400Y-93881200D03*
%TD*%
D12*
%TO.C,D60*%
X278398600Y-134635400D03*
X275098600Y-134635400D03*
%TD*%
D10*
%TO.C,MX16*%
X95383900Y-77371200D03*
X108310900Y-74831200D03*
%TD*%
D13*
%TO.C,C1*%
X98153500Y-68782400D03*
X97603500Y-68782400D03*
%TD*%
D11*
%TO.C,D23*%
X205478600Y-81937600D03*
X205478600Y-78637600D03*
%TD*%
D10*
%TO.C,MX9*%
X219208900Y-58321200D03*
X232135900Y-55781200D03*
%TD*%
%TO.C,MX11*%
X257308900Y-58321200D03*
X270235900Y-55781200D03*
%TD*%
%TO.C,MX4*%
X123958900Y-58321200D03*
X136885900Y-55781200D03*
%TD*%
D11*
%TO.C,D35*%
X172712600Y-101678000D03*
X172712600Y-98378000D03*
%TD*%
D14*
%TO.C,C11*%
X160748280Y-133757198D03*
X160748280Y-133207200D03*
%TD*%
D15*
%TO.C,U2*%
X102158600Y-62655400D03*
X102158600Y-63605400D03*
X102158600Y-64555400D03*
X99883600Y-64555400D03*
X99883600Y-63605400D03*
X99883600Y-62655400D03*
%TD*%
D16*
%TO.C,C14*%
X164901102Y-142305400D03*
X165451100Y-142305400D03*
%TD*%
D10*
%TO.C,MX12*%
X276358900Y-58321200D03*
X289285900Y-55781200D03*
%TD*%
D11*
%TO.C,D52*%
X258247100Y-119987800D03*
X258247100Y-116687800D03*
%TD*%
D10*
%TO.C,MX48*%
X204921400Y-115471200D03*
X217848400Y-112931200D03*
%TD*%
%TO.C,MX14*%
X323983900Y-58321200D03*
X336910900Y-55781200D03*
%TD*%
D17*
%TO.C,U3*%
X172358600Y-131380400D03*
X172358600Y-132650400D03*
X172358600Y-133920400D03*
X172358599Y-135190400D03*
X165183600Y-135190400D03*
X165183600Y-133920400D03*
X165183600Y-132650400D03*
X165183601Y-131380400D03*
%TD*%
D18*
%TO.C,R5*%
X174331100Y-136865400D03*
X175351100Y-136865400D03*
%TD*%
D13*
%TO.C,C2*%
X95871500Y-68782400D03*
X95321500Y-68782400D03*
%TD*%
D11*
%TO.C,D51*%
X239197100Y-119987800D03*
X239197100Y-116687800D03*
%TD*%
D10*
%TO.C,MX42*%
X78715150Y-115471200D03*
X91642150Y-112931200D03*
%TD*%
D11*
%TO.C,D16*%
X340372300Y-61643000D03*
X340372300Y-58343000D03*
%TD*%
%TO.C,D48*%
X182047100Y-119987800D03*
X182047100Y-116687800D03*
%TD*%
D19*
%TO.C,D19*%
X124747190Y-82523800D03*
X128047190Y-82523800D03*
%TD*%
D10*
%TO.C,MX21*%
X190633900Y-77371200D03*
X203560900Y-74831200D03*
%TD*%
D11*
%TO.C,D33*%
X133921100Y-101445800D03*
X133921100Y-98145800D03*
%TD*%
D10*
%TO.C,MX26*%
X285883900Y-77371200D03*
X298810900Y-74831200D03*
%TD*%
D11*
%TO.C,D11*%
X234632100Y-61643000D03*
X234632100Y-58343000D03*
%TD*%
%TO.C,D41*%
X287012600Y-101678000D03*
X287012600Y-98378000D03*
%TD*%
%TO.C,D29*%
X319778600Y-81937600D03*
X319778600Y-78637600D03*
%TD*%
%TO.C,D46*%
X143573100Y-119835400D03*
X143573100Y-116535400D03*
%TD*%
%TO.C,D7*%
X158432100Y-61643000D03*
X158432100Y-58343000D03*
%TD*%
%TO.C,D26*%
X262628600Y-81937600D03*
X262628600Y-78637600D03*
%TD*%
D20*
%TO.C,J1*%
X96527190Y-55767400D03*
X97327190Y-55767400D03*
D21*
X98477190Y-55767400D03*
X99477190Y-55767400D03*
X99977190Y-55767400D03*
X100977190Y-55767400D03*
D20*
X102127190Y-55767400D03*
X102927190Y-55767400D03*
X102927190Y-55767400D03*
X102127190Y-55767400D03*
D21*
X101477190Y-55767400D03*
X100477190Y-55767400D03*
X98977190Y-55767400D03*
X97977190Y-55767400D03*
D20*
X97327190Y-55767400D03*
X96527190Y-55767400D03*
%TD*%
D12*
%TO.C,D59*%
X206888600Y-134635400D03*
X203588600Y-134635400D03*
%TD*%
D11*
%TO.C,D6*%
X139235400Y-61516000D03*
X139235400Y-58216000D03*
%TD*%
D10*
%TO.C,MX13*%
X295408900Y-58321200D03*
X308335900Y-55781200D03*
%TD*%
%TO.C,MX19*%
X152533900Y-77371200D03*
X165460900Y-74831200D03*
%TD*%
D11*
%TO.C,D14*%
X291782100Y-61643000D03*
X291782100Y-58343000D03*
%TD*%
%TO.C,D47*%
X162997100Y-119987800D03*
X162997100Y-116687800D03*
%TD*%
D10*
%TO.C,MX20*%
X171583900Y-77371200D03*
X184510900Y-74831200D03*
%TD*%
%TO.C,MX54*%
X69190150Y-134521200D03*
X82117150Y-131981200D03*
%TD*%
D11*
%TO.C,D15*%
X310832100Y-61643000D03*
X310832100Y-58343000D03*
%TD*%
%TO.C,D55*%
X332650700Y-119987800D03*
X332650700Y-116687800D03*
%TD*%
D10*
%TO.C,MX53*%
X316840150Y-115471200D03*
X329767150Y-112931200D03*
%TD*%
D14*
%TO.C,C15*%
X157979899Y-146444400D03*
X157979899Y-145894402D03*
%TD*%
D10*
%TO.C,MX18*%
X133483900Y-77371200D03*
X146410900Y-74831200D03*
%TD*%
D11*
%TO.C,D50*%
X220147100Y-119987800D03*
X220147100Y-116687800D03*
%TD*%
%TO.C,D21*%
X167378600Y-81937600D03*
X167378600Y-78637600D03*
%TD*%
%TO.C,D36*%
X191762600Y-101678000D03*
X191762600Y-98378000D03*
%TD*%
%TO.C,D12*%
X253682100Y-61643000D03*
X253682100Y-58343000D03*
%TD*%
D14*
%TO.C,C9*%
X156369900Y-136128400D03*
X156369900Y-135578402D03*
%TD*%
D11*
%TO.C,D24*%
X224528600Y-81937600D03*
X224528600Y-78637600D03*
%TD*%
D10*
%TO.C,MX30*%
X100146400Y-96421200D03*
X113073400Y-93881200D03*
%TD*%
%TO.C,MX41*%
X321602650Y-96421200D03*
X334529650Y-93881200D03*
%TD*%
D11*
%TO.C,D54*%
X296347100Y-119987800D03*
X296347100Y-116687800D03*
%TD*%
D22*
%TO.C,U4*%
X160581101Y-140505400D03*
X160581100Y-142105401D03*
X158981100Y-140505399D03*
X158981099Y-142105400D03*
D23*
X163218600Y-138705400D03*
X163218600Y-139105400D03*
X163218600Y-139505400D03*
X163218601Y-139905400D03*
X163218600Y-140305401D03*
X163218599Y-140705398D03*
X163218601Y-141105400D03*
X163218600Y-141505400D03*
X163218600Y-141905401D03*
X163218599Y-142305399D03*
X163218600Y-142705401D03*
X163218599Y-143105400D03*
X163218599Y-143505400D03*
X163218600Y-143905401D03*
D24*
X162381100Y-144742900D03*
X161981100Y-144742900D03*
X161581100Y-144742900D03*
X161181100Y-144742901D03*
X160781099Y-144742900D03*
X160381102Y-144742899D03*
X159981100Y-144742901D03*
X159581100Y-144742900D03*
X159181099Y-144742900D03*
X158781101Y-144742899D03*
X158381099Y-144742900D03*
X157981100Y-144742899D03*
X157581100Y-144742899D03*
X157181099Y-144742900D03*
D23*
X156343600Y-143905400D03*
X156343600Y-143505400D03*
X156343600Y-143105400D03*
X156343599Y-142705400D03*
X156343600Y-142305399D03*
X156343601Y-141905402D03*
X156343599Y-141505400D03*
X156343600Y-141105400D03*
X156343600Y-140705399D03*
X156343601Y-140305401D03*
X156343600Y-139905399D03*
X156343601Y-139505400D03*
X156343601Y-139105400D03*
X156343600Y-138705399D03*
D24*
X157181100Y-137867900D03*
X157581100Y-137867900D03*
X157981100Y-137867900D03*
X158381100Y-137867899D03*
X158781101Y-137867900D03*
X159181098Y-137867901D03*
X159581100Y-137867899D03*
X159981100Y-137867900D03*
X160381101Y-137867900D03*
X160781099Y-137867901D03*
X161181101Y-137867900D03*
X161581100Y-137867901D03*
X161981100Y-137867901D03*
X162381101Y-137867900D03*
%TD*%
D10*
%TO.C,MX10*%
X238258900Y-58321200D03*
X251185900Y-55781200D03*
%TD*%
%TO.C,MX17*%
X114433900Y-77371200D03*
X127360900Y-74831200D03*
%TD*%
%TO.C,MX45*%
X147771400Y-115471200D03*
X160698400Y-112931200D03*
%TD*%
D18*
%TO.C,R4*%
X156555301Y-133355198D03*
X157575301Y-133355198D03*
%TD*%
D14*
%TO.C,C18*%
X168600628Y-146460484D03*
X168600628Y-145910488D03*
%TD*%
D25*
%TO.C,C4*%
X158882500Y-146415201D03*
X158882500Y-146965199D03*
%TD*%
D11*
%TO.C,D45*%
X124897100Y-119987800D03*
X124897100Y-116687800D03*
%TD*%
%TO.C,D30*%
X343591100Y-81937600D03*
X343591100Y-78637600D03*
%TD*%
D12*
%TO.C,D57*%
X112811100Y-136975400D03*
X109511100Y-136975400D03*
%TD*%
D11*
%TO.C,D53*%
X277297100Y-119987800D03*
X277297100Y-116687800D03*
%TD*%
D10*
%TO.C,MX3*%
X104908900Y-58321200D03*
X117835900Y-55781200D03*
%TD*%
%TO.C,MX15*%
X71571400Y-77371200D03*
X84498400Y-74831200D03*
%TD*%
D11*
%TO.C,D31*%
X88860850Y-101678000D03*
X88860850Y-98378000D03*
%TD*%
D26*
%TO.C,F1*%
X97318790Y-60933800D03*
X98288790Y-60933800D03*
%TD*%
D10*
%TO.C,MX56*%
X116815150Y-134521200D03*
X129742150Y-131981200D03*
%TD*%
D11*
%TO.C,D8*%
X177482100Y-61643000D03*
X177482100Y-58343000D03*
%TD*%
%TO.C,D13*%
X272732100Y-61643000D03*
X272732100Y-58343000D03*
%TD*%
D10*
%TO.C,MX37*%
X233496400Y-96421200D03*
X246423400Y-93881200D03*
%TD*%
D11*
%TO.C,D27*%
X281678600Y-81937600D03*
X281678600Y-78637600D03*
%TD*%
D10*
%TO.C,MX29*%
X73952650Y-96421200D03*
X86879650Y-93881200D03*
%TD*%
D11*
%TO.C,D38*%
X229862600Y-101678000D03*
X229862600Y-98378000D03*
%TD*%
D13*
%TO.C,C10*%
X155120500Y-142312201D03*
X154570502Y-142312201D03*
%TD*%
D18*
%TO.C,R3*%
X156555300Y-132339200D03*
X157575300Y-132339200D03*
%TD*%
D10*
%TO.C,MX1*%
X66808900Y-58321200D03*
X79735900Y-55781200D03*
%TD*%
D16*
%TO.C,C8*%
X164586101Y-138475400D03*
X165136099Y-138475400D03*
%TD*%
D19*
%TO.C,D63*%
X341790190Y-140207200D03*
X345090190Y-140207200D03*
%TD*%
D10*
%TO.C,MX25*%
X266833900Y-77371200D03*
X279760900Y-74831200D03*
%TD*%
D11*
%TO.C,D17*%
X87058100Y-81937600D03*
X87058100Y-78637600D03*
%TD*%
%TO.C,D4*%
X84467300Y-66724000D03*
X84467300Y-63424000D03*
%TD*%
D27*
%TO.C,MX2*%
X90360100Y-67917200D03*
X87820100Y-54990200D03*
%TD*%
D11*
%TO.C,D32*%
X115562600Y-101678000D03*
X115562600Y-98378000D03*
%TD*%
D10*
%TO.C,MX33*%
X157296400Y-96421200D03*
X170223400Y-93881200D03*
%TD*%
D11*
%TO.C,D10*%
X215582100Y-61643000D03*
X215582100Y-58343000D03*
%TD*%
D14*
%TO.C,C5*%
X157691100Y-135810399D03*
X157691100Y-135260401D03*
%TD*%
D11*
%TO.C,D20*%
X148328600Y-81937600D03*
X148328600Y-78637600D03*
%TD*%
D10*
%TO.C,MX6*%
X162058900Y-58321200D03*
X174985900Y-55781200D03*
%TD*%
D11*
%TO.C,D22*%
X186428600Y-81937600D03*
X186428600Y-78637600D03*
%TD*%
D10*
%TO.C,MX8*%
X200158900Y-58321200D03*
X213085900Y-55781200D03*
%TD*%
%TO.C,MX38*%
X252546400Y-96421200D03*
X265473400Y-93881200D03*
%TD*%
%TO.C,MX61*%
X331127650Y-134521200D03*
X344054650Y-131981200D03*
%TD*%
D11*
%TO.C,D9*%
X196532100Y-61643000D03*
X196532100Y-58343000D03*
%TD*%
D14*
%TO.C,C6*%
X157029500Y-136128399D03*
X157029500Y-135578401D03*
%TD*%
D28*
%TO.C,TAXM12M4RLBDDT2T1*%
X167234100Y-147175400D03*
X165484101Y-147175400D03*
X165484100Y-145775400D03*
X167234099Y-145775400D03*
%TD*%
D10*
%TO.C,MX43*%
X109671400Y-115471200D03*
X122598400Y-112931200D03*
%TD*%
D29*
%TO.C,R6*%
X160381100Y-148145399D03*
X160381100Y-147125401D03*
%TD*%
D12*
%TO.C,D58*%
X136668600Y-136975400D03*
X133368600Y-136975400D03*
%TD*%
D10*
%TO.C,MX60*%
X307315150Y-134521200D03*
X320242150Y-131981200D03*
%TD*%
D11*
%TO.C,D34*%
X153662600Y-101678000D03*
X153662600Y-98378000D03*
%TD*%
D30*
%TO.C,SW1*%
X178211100Y-136205400D03*
X178211100Y-128405400D03*
%TD*%
D12*
%TO.C,D62*%
X326021100Y-134635400D03*
X322721100Y-134635400D03*
%TD*%
D11*
%TO.C,D5*%
X120382900Y-61643000D03*
X120382900Y-58343000D03*
%TD*%
D10*
%TO.C,MX24*%
X247783900Y-77371200D03*
X260710900Y-74831200D03*
%TD*%
D31*
%TO.C,U1*%
X95852000Y-71942200D03*
X95852000Y-70042200D03*
X98127000Y-70992200D03*
%TD*%
D11*
%TO.C,D18*%
X110121300Y-81887800D03*
X110121300Y-78587800D03*
%TD*%
D25*
%TO.C,C17*%
X164160700Y-146341602D03*
X164160700Y-146891598D03*
%TD*%
D11*
%TO.C,D3*%
X82232100Y-61643000D03*
X82232100Y-58343000D03*
%TD*%
%TO.C,D25*%
X243578600Y-81937600D03*
X243578600Y-78637600D03*
%TD*%
%TO.C,D37*%
X210812600Y-101678000D03*
X210812600Y-98378000D03*
%TD*%
%TO.C,D28*%
X300728600Y-81937600D03*
X300728600Y-78637600D03*
%TD*%
D10*
%TO.C,MX50*%
X243021400Y-115471200D03*
X255948400Y-112931200D03*
%TD*%
D32*
%TO.C,R2*%
X101479790Y-57528200D03*
X101479790Y-58548200D03*
%TD*%
D10*
%TO.C,MX57*%
X188252650Y-134521200D03*
X201179650Y-131981200D03*
%TD*%
D14*
%TO.C,C3*%
X161418280Y-133757198D03*
X161418280Y-133207200D03*
%TD*%
D10*
%TO.C,MX5*%
X143008900Y-58321200D03*
X155935900Y-55781200D03*
%TD*%
%TO.C,MX52*%
X281121400Y-115471200D03*
X294048400Y-112931200D03*
%TD*%
%TO.C,MX35*%
X195396400Y-96421200D03*
X208323400Y-93881200D03*
%TD*%
%TO.C,MX27*%
X304933900Y-77371200D03*
X317860900Y-74831200D03*
%TD*%
%TO.C,MX34*%
X176346400Y-96421200D03*
X189273400Y-93881200D03*
%TD*%
%TO.C,MX7*%
X181108900Y-58321200D03*
X194035900Y-55781200D03*
%TD*%
%TO.C,MX58*%
X259690150Y-134521200D03*
X272617150Y-131981200D03*
%TD*%
D11*
%TO.C,D39*%
X248912600Y-101678000D03*
X248912600Y-98378000D03*
%TD*%
D25*
%TO.C,C12*%
X159552500Y-146415201D03*
X159552500Y-146965199D03*
%TD*%
D11*
%TO.C,D44*%
X94068500Y-119987800D03*
X94068500Y-116687800D03*
%TD*%
D13*
%TO.C,C7*%
X155192699Y-138705402D03*
X154642701Y-138705402D03*
%TD*%
D10*
%TO.C,MX46*%
X166821400Y-115471200D03*
X179748400Y-112931200D03*
%TD*%
%TO.C,MX49*%
X223971400Y-115471200D03*
X236898400Y-112931200D03*
%TD*%
%TO.C,MX32*%
X138246400Y-96421200D03*
X151173400Y-93881200D03*
%TD*%
D11*
%TO.C,D43*%
X337070300Y-101471200D03*
X337070300Y-98171200D03*
%TD*%
D32*
%TO.C,R1*%
X98482590Y-57735000D03*
X98482590Y-58755000D03*
%TD*%
D10*
%TO.C,MX59*%
X283502650Y-134521200D03*
X296429650Y-131981200D03*
%TD*%
D12*
%TO.C,D56*%
X89008600Y-136975400D03*
X85708600Y-136975400D03*
%TD*%
D10*
%TO.C,MX36*%
X214446400Y-96421200D03*
X227373400Y-93881200D03*
%TD*%
D11*
%TO.C,D40*%
X267962600Y-101678000D03*
X267962600Y-98378000D03*
%TD*%
D10*
%TO.C,MX55*%
X93002650Y-134521200D03*
X105929650Y-131981200D03*
%TD*%
%TO.C,MX40*%
X290646400Y-96421200D03*
X303573400Y-93881200D03*
%TD*%
%TO.C,MX23*%
X228733900Y-77371200D03*
X241660900Y-74831200D03*
%TD*%
D14*
%TO.C,C13*%
X160037101Y-133757197D03*
X160037101Y-133207199D03*
%TD*%
D10*
%TO.C,MX28*%
X328746400Y-77371200D03*
X341673400Y-74831200D03*
%TD*%
%TO.C,MX51*%
X262071400Y-115471200D03*
X274998400Y-112931200D03*
%TD*%
D11*
%TO.C,D42*%
X306062600Y-101471200D03*
X306062600Y-98171200D03*
%TD*%
D10*
%TO.C,MX22*%
X209683900Y-77371200D03*
X222610900Y-74831200D03*
%TD*%
D13*
%TO.C,C16*%
X175046099Y-130465400D03*
X174496101Y-130465400D03*
%TD*%
D10*
%TO.C,MX44*%
X128721400Y-115471200D03*
X141648400Y-112931200D03*
%TD*%
D12*
%TO.C,D61*%
X302321100Y-134635400D03*
X299021100Y-134635400D03*
%TD*%
D10*
%TO.C,MX39*%
X271596400Y-96421200D03*
X284523400Y-93881200D03*
%TD*%
M02*
