M48
; DRILL file {KiCad 9.0.0} date 2025-08-27T13:47:25+0100
; FORMAT={-:-/ absolute / metric / decimal}
; #@! TF.CreationDate,2025-08-27T13:47:25+01:00
; #@! TF.GenerationSoftware,Kicad,Pcbnew,9.0.0
; #@! TF.FileFunction,Plated,1,2,PTH
FMAT,2
METRIC
; #@! TA.AperFunction,Plated,PTH,ViaDrill
T1C0.178
; #@! TA.AperFunction,Plated,PTH,ViaDrill
T2C0.254
; #@! TA.AperFunction,Plated,PTH,ViaDrill
T3C0.400
; #@! TA.AperFunction,Plated,PTH,ComponentDrill
T4C0.600
%
G90
G05
T1
X136.661Y-140.145
X163.72Y-136.378
X167.431Y-135.035
T2
X77.071Y-69.345
X82.171Y-88.395
X82.681Y-105.625
X89.331Y-126.643
X96.909Y-68.782
X98.483Y-59.595
X101.561Y-67.255
X101.561Y-68.503
X102.521Y-58.851
X103.331Y-69.17
X103.341Y-67.165
X105.201Y-67.175
X105.214Y-68.859
X105.621Y-88.425
X115.271Y-69.335
X120.438Y-126.643
X124.801Y-88.405
X139.121Y-126.635
X143.861Y-88.385
X150.201Y-142.065
X153.586Y-138.715
X153.829Y-142.366
X155.531Y-130.86
X156.38Y-134.879
X157.04Y-134.879
X157.446Y-146.411
X157.701Y-134.514
X157.775Y-136.448
X158.031Y-126.645
X158.051Y-147.125
X160.739Y-134.457
X161.774Y-139.248
X162.171Y-133.228
X163.181Y-88.405
X164.171Y-147.645
X165.941Y-138.475
X166.123Y-142.569
X167.257Y-144.686
X168.521Y-137.965
X169.315Y-145.931
X171.121Y-135.195
X177.101Y-126.645
X178.211Y-126.965
X182.061Y-88.405
X196.141Y-126.655
X201.211Y-88.375
X215.558Y-126.643
X220.151Y-88.385
X234.608Y-126.643
X239.161Y-88.405
X255.151Y-126.675
X257.951Y-88.425
X268.421Y-143.895
X272.621Y-126.655
X277.061Y-88.425
X291.511Y-126.635
X296.251Y-88.435
X305.871Y-69.335
X315.001Y-88.335
X330.334Y-106.019
X334.341Y-69.345
X338.971Y-88.391
T3
X82.261Y-67.935
X87.058Y-84.099
X88.853Y-103.515
X89.561Y-80.945
X91.821Y-140.125
X94.069Y-121.64
X94.088Y-71.949
X94.497Y-68.782
X95.389Y-80.974
X107.477Y-120.042
X107.526Y-64.21
X109.671Y-117.848
X110.121Y-85.394
X110.581Y-67.275
X112.811Y-140.263
X115.561Y-103.507
X120.383Y-63.875
X124.772Y-85.419
X124.904Y-121.564
X127.571Y-145.565
X128.691Y-125.795
X128.721Y-123.185
X133.921Y-103.507
X139.28Y-67.115
X143.573Y-121.386
X148.323Y-85.394
X151.391Y-139.085
X153.661Y-103.507
X158.432Y-67.095
X159.781Y-141.305
X163.029Y-121.462
X167.381Y-85.419
X168.531Y-130.575
X172.727Y-103.507
X177.481Y-65.415
X182.054Y-121.487
X186.431Y-85.419
X191.751Y-103.507
X196.532Y-65.379
X199.051Y-145.545
X201.129Y-121.487
X205.471Y-85.419
X206.889Y-136.475
X210.811Y-103.525
X215.582Y-65.406
X220.129Y-121.437
X224.531Y-85.419
X229.851Y-103.505
X234.632Y-65.379
X239.204Y-121.564
X243.598Y-85.419
X248.914Y-103.507
X253.682Y-65.279
X258.231Y-121.545
X262.648Y-85.419
X267.961Y-103.475
X272.732Y-65.353
X277.304Y-121.487
X278.391Y-136.765
X281.698Y-85.419
X287.013Y-103.422
X291.771Y-65.355
X296.354Y-121.564
X300.723Y-85.419
X302.321Y-136.585
X306.041Y-103.507
X310.832Y-65.355
X319.798Y-85.419
X325.571Y-125.175
X325.981Y-140.145
X326.031Y-136.685
X332.188Y-103.507
X332.661Y-121.545
X340.371Y-65.355
X343.591Y-85.423
T4
G00X95.407Y-50.647
M15
G01X95.407Y-51.247
M16
G05
G00X95.407Y-54.577
M15
G01X95.407Y-55.677
M16
G05
G00X104.047Y-50.647
M15
G01X104.047Y-51.247
M16
G05
G00X104.047Y-54.577
M15
G01X104.047Y-55.677
M16
G05
M30
