M48
; DRILL file {KiCad 9.0.0} date 2025-08-27T13:47:25+0100
; FORMAT={-:-/ absolute / metric / decimal}
; #@! TF.CreationDate,2025-08-27T13:47:25+01:00
; #@! TF.GenerationSoftware,Kicad,Pcbnew,9.0.0
; #@! TF.FileFunction,NonPlated,1,2,NPTH
FMAT,2
METRIC
; #@! TA.AperFunction,NonPlated,NPTH,ComponentDrill
T1C0.650
; #@! TA.AperFunction,NonPlated,NPTH,ComponentDrill
T2C1.702
; #@! TA.AperFunction,NonPlated,NPTH,ComponentDrill
T3C2.200
; #@! TA.AperFunction,NonPlated,NPTH,ComponentDrill
T4C3.000
; #@! TA.AperFunction,NonPlated,NPTH,ComponentDrill
T5C3.048
; #@! TA.AperFunction,NonPlated,NPTH,ComponentDrill
T6C3.988
%
G90
G05
T1
X96.837Y-54.627
X102.617Y-54.627
T2
X68.814Y-60.861
X71.195Y-137.061
X73.576Y-79.911
X75.958Y-98.961
X78.974Y-60.861
X80.72Y-118.011
X81.355Y-137.061
X83.736Y-79.911
X86.118Y-98.961
X90.88Y-118.011
X92.9Y-55.752
X92.9Y-65.912
X95.008Y-137.061
X97.389Y-79.911
X102.151Y-98.961
X105.168Y-137.061
X106.914Y-60.861
X107.549Y-79.911
X111.676Y-118.011
X112.311Y-98.961
X116.439Y-79.911
X117.074Y-60.861
X118.82Y-137.061
X121.201Y-98.961
X121.836Y-118.011
X125.964Y-60.861
X126.599Y-79.911
X128.98Y-137.061
X130.726Y-118.011
X131.361Y-98.961
X135.489Y-79.911
X136.124Y-60.861
X140.251Y-98.961
X140.886Y-118.011
X145.014Y-60.861
X145.649Y-79.911
X149.776Y-118.011
X150.411Y-98.961
X154.539Y-79.911
X155.174Y-60.861
X159.301Y-98.961
X159.936Y-118.011
X164.064Y-60.861
X164.699Y-79.911
X168.826Y-118.011
X169.461Y-98.961
X173.589Y-79.911
X174.224Y-60.861
X178.351Y-98.961
X178.986Y-118.011
X183.114Y-60.861
X183.749Y-79.911
X187.876Y-118.011
X188.511Y-98.961
X190.258Y-137.061
X192.639Y-79.911
X193.274Y-60.861
X197.401Y-98.961
X198.036Y-118.011
X200.418Y-137.061
X202.164Y-60.861
X202.799Y-79.911
X206.926Y-118.011
X207.561Y-98.961
X211.689Y-79.911
X212.324Y-60.861
X216.451Y-98.961
X217.086Y-118.011
X221.214Y-60.861
X221.849Y-79.911
X225.976Y-118.011
X226.611Y-98.961
X230.739Y-79.911
X231.374Y-60.861
X235.501Y-98.961
X236.136Y-118.011
X240.264Y-60.861
X240.899Y-79.911
X245.026Y-118.011
X245.661Y-98.961
X249.789Y-79.911
X250.424Y-60.861
X254.551Y-98.961
X255.186Y-118.011
X259.314Y-60.861
X259.949Y-79.911
X261.695Y-137.061
X264.076Y-118.011
X264.711Y-98.961
X268.839Y-79.911
X269.474Y-60.861
X271.855Y-137.061
X273.601Y-98.961
X274.236Y-118.011
X278.364Y-60.861
X278.999Y-79.911
X283.126Y-118.011
X283.761Y-98.961
X285.508Y-137.061
X287.889Y-79.911
X288.524Y-60.861
X292.651Y-98.961
X293.286Y-118.011
X295.668Y-137.061
X297.414Y-60.861
X298.049Y-79.911
X302.811Y-98.961
X306.939Y-79.911
X307.574Y-60.861
X309.32Y-137.061
X317.099Y-79.911
X318.845Y-118.011
X319.48Y-137.061
X323.608Y-98.961
X325.989Y-60.861
X329.005Y-118.011
X330.751Y-79.911
X333.133Y-137.061
X333.768Y-98.961
X336.149Y-60.861
X340.911Y-79.911
X343.293Y-137.061
T3
X94.546Y-94.157
X99.676Y-117.068
X222.308Y-135.356
X303.334Y-116.712
X317.151Y-60.629
T4
X70.084Y-58.321
X72.465Y-134.521
X74.846Y-77.371
X76.434Y-55.781
X77.228Y-96.421
X78.815Y-131.981
X81.196Y-74.831
X81.99Y-115.471
X83.578Y-93.881
X87.82Y-58.292
X88.34Y-112.931
X90.36Y-64.642
X96.278Y-134.521
X98.659Y-77.371
X102.628Y-131.981
X103.421Y-96.421
X105.009Y-74.831
X108.184Y-58.321
X109.771Y-93.881
X112.946Y-115.471
X114.534Y-55.781
X117.709Y-77.371
X119.296Y-112.931
X120.09Y-134.521
X122.471Y-96.421
X124.059Y-74.831
X126.44Y-131.981
X127.234Y-58.321
X128.821Y-93.881
X131.996Y-115.471
X133.584Y-55.781
X136.759Y-77.371
X138.346Y-112.931
X141.521Y-96.421
X143.109Y-74.831
X146.284Y-58.321
X147.871Y-93.881
X151.046Y-115.471
X152.634Y-55.781
X155.809Y-77.371
X157.396Y-112.931
X160.571Y-96.421
X162.159Y-74.831
X165.334Y-58.321
X166.921Y-93.881
X170.096Y-115.471
X171.684Y-55.781
X174.859Y-77.371
X176.446Y-112.931
X179.621Y-96.421
X181.209Y-74.831
X184.384Y-58.321
X185.971Y-93.881
X189.146Y-115.471
X190.734Y-55.781
X191.528Y-134.521
X193.909Y-77.371
X195.496Y-112.931
X197.878Y-131.981
X198.671Y-96.421
X200.259Y-74.831
X203.434Y-58.321
X205.021Y-93.881
X208.196Y-115.471
X209.784Y-55.781
X212.959Y-77.371
X214.546Y-112.931
X217.721Y-96.421
X219.309Y-74.831
X222.484Y-58.321
X224.071Y-93.881
X227.246Y-115.471
X228.834Y-55.781
X232.009Y-77.371
X233.596Y-112.931
X236.771Y-96.421
X238.359Y-74.831
X241.534Y-58.321
X243.121Y-93.881
X246.296Y-115.471
X247.884Y-55.781
X251.059Y-77.371
X252.646Y-112.931
X255.821Y-96.421
X257.409Y-74.831
X260.584Y-58.321
X262.171Y-93.881
X262.965Y-134.521
X265.346Y-115.471
X266.934Y-55.781
X269.315Y-131.981
X270.109Y-77.371
X271.696Y-112.931
X274.871Y-96.421
X276.459Y-74.831
X279.634Y-58.321
X281.221Y-93.881
X284.396Y-115.471
X285.984Y-55.781
X286.778Y-134.521
X289.159Y-77.371
X290.746Y-112.931
X293.128Y-131.981
X293.921Y-96.421
X295.509Y-74.831
X298.684Y-58.321
X300.271Y-93.881
X305.034Y-55.781
X308.209Y-77.371
X310.59Y-134.521
X314.559Y-74.831
X316.94Y-131.981
X320.115Y-115.471
X324.878Y-96.421
X326.465Y-112.931
X327.259Y-58.321
X331.228Y-93.881
X332.021Y-77.371
X333.609Y-55.781
X334.403Y-134.521
X338.371Y-74.831
X340.753Y-131.981
T5
X73.862Y-111.026
X97.738Y-111.026
X145.338Y-144.046
X245.338Y-144.046
X311.987Y-111.026
X316.75Y-91.976
X319.131Y-53.876
X335.863Y-111.026
X340.626Y-91.976
X343.007Y-53.876
T6
X73.862Y-126.266
X73.894Y-60.861
X76.275Y-137.061
X78.656Y-79.911
X81.038Y-98.961
X85.8Y-118.011
X92.9Y-60.832
X97.738Y-126.266
X100.088Y-137.061
X102.469Y-79.911
X107.231Y-98.961
X111.994Y-60.861
X116.756Y-118.011
X121.519Y-79.911
X123.9Y-137.061
X126.281Y-98.961
X131.044Y-60.861
X135.806Y-118.011
X140.569Y-79.911
X145.331Y-98.961
X145.338Y-128.806
X150.094Y-60.861
X154.856Y-118.011
X159.619Y-79.911
X164.381Y-98.961
X169.144Y-60.861
X173.906Y-118.011
X178.669Y-79.911
X183.431Y-98.961
X188.194Y-60.861
X192.956Y-118.011
X195.338Y-137.061
X197.719Y-79.911
X202.481Y-98.961
X207.244Y-60.861
X212.006Y-118.011
X216.769Y-79.911
X221.531Y-98.961
X226.294Y-60.861
X231.056Y-118.011
X235.819Y-79.911
X240.581Y-98.961
X245.338Y-128.806
X245.344Y-60.861
X250.106Y-118.011
X254.869Y-79.911
X259.631Y-98.961
X264.394Y-60.861
X266.775Y-137.061
X269.156Y-118.011
X273.919Y-79.911
X278.681Y-98.961
X283.444Y-60.861
X288.206Y-118.011
X290.588Y-137.061
X292.969Y-79.911
X297.731Y-98.961
X302.494Y-60.861
X311.987Y-126.266
X312.019Y-79.911
X314.4Y-137.061
X316.75Y-107.216
X319.131Y-69.116
X323.925Y-118.011
X328.688Y-98.961
X331.069Y-60.861
X335.831Y-79.911
X335.863Y-126.266
X338.213Y-137.061
X340.626Y-107.216
X343.007Y-69.116
M30
